# AST/ASF file generated using VICON BodyLanguage
# -----------------------------------------------
:version 1.10
:name VICON
:units
  mass 1.0
  length 0.45
  angle deg
:documentation
   .ast/.asf automatically generated from VICON data using
   VICON BodyBuilder and BodyLanguage model FoxedUp or BRILLIANT.MOD
:root
   order TX TY TZ RX RY RZ
   axis XYZ
   position 0 0 0  
   orientation 0 0 0 
:bonedata
  begin
     id 1 
     name lhipjoint
     direction 0.682418 -0.694059 0.22932 
     length 2.25561 
     axis 0 0 0  XYZ
  end
  begin
     id 2 
     name lfemur
     direction 0.34202 -0.939693 0  
     length 6.96448  
     axis 0 0 20  XYZ
    dof rx ry rz
    limits (-160.0 20.0)
           (-70.0 70.0)
           (-60.0 70.0)
  end
  begin
     id 3 
     name ltibia
     direction 0.34202 -0.939693 0   
     length 6.88553   
     axis 0 0 20   XYZ
    dof rx
    limits (-10.0 170.0)
  end
  begin
     id 4 
     name lfoot
     direction 0.0723587 -0.198804 0.977364   
     length 1.88518   
     axis -90 7.62852e-016 20   XYZ
    dof rx rz
    limits (-45.0 90.0)
           (-70.0 20.0)
  end
  begin
     id 5 
     name ltoes
     direction 1.53558e-011 -4.21962e-011 1   
     length 0.952124   
     axis -90 7.62852e-016 20   XYZ
    dof rx
    limits (-90.0 20.0)
  end
  begin
     id 6 
     name rhipjoint
     direction -0.657603 -0.71533 0.236348   
     length 2.18854  
     axis 0 0 0  XYZ 
  end
  begin
     id 7 
     name rfemur
     direction -0.34202 -0.939693 0   
     length 6.86686   
     axis 0 0 -20   XYZ
    dof rx ry rz
    limits (-160.0 20.0)
           (-70.0 70.0)
           (-70.0 60.0)
  end
  begin
     id 8 
     name rtibia
     direction -0.34202 -0.939693 0   
     length 6.59503   
     axis 0 0 -20   XYZ
    dof rx
    limits (-10.0 170.0)
 end
 begin
     id 9 
     name rfoot
     direction -0.101977 -0.280179 0.954516   
     length 1.93723  
     axis -90 -7.62852e-016 -20   XYZ
    dof rx rz
    limits (-45.0 90.0)
           (-20.0 70.0)
  end
  begin
     id 10 
     name rtoes
     direction -1.53564e-011 -4.21897e-011 1   
     length 0.970315   
     axis -90 -7.62852e-016 -20   XYZ
    dof rx
    limits (-90.0 20.0)
  end
  begin
     id 11 
     name lowerback
     direction -0.0339559 0.999421 -0.00235966   
     length 1.88543   
     axis 0 0 0   XYZ
    dof rx ry rz
    limits (-20.0 45.0)
           (-30.0 30.0)
           (-30.0 30.0)
  end
  begin
     id 12 
     name upperback
     direction 0.00401003 0.999739 0.0224689   
     length 1.8856   
     axis 0 0 0   XYZ
    dof rx ry rz
    limits (-20.0 45.0)
           (-30.0 30.0)
           (-30.0 30.0)
  end
  begin
     id 13 
     name thorax
     direction 0.0198619 0.999546 0.0226536   
     length 1.88352   
     axis 0 0 0   XYZ
    dof rx ry rz
    limits (-20.0 45.0)
           (-30.0 30.0)
           (-30.0 30.0)
  end
  begin
     id 14 
     name lowerneck
     direction -0.0461848 0.998632 0.0245198   
     length 1.34895   
     axis 0 0 0   XYZ
    dof rx ry rz
    limits (-20.0 45.0)
           (-30.0 30.0)
           (-30.0 30.0)
  end
  begin
     id 15 
     name upperneck
     direction -0.0180627 0.994724 -0.100984   
     length 1.35214   
     axis 0 0 0   XYZ
    dof rx ry rz
    limits (-20.0 45.0)
           (-30.0 30.0)
           (-30.0 30.0)
  end
  begin
     id 16
     name head
     direction -0.00374772 0.999293 -0.037403  
     length 1.3568  
     axis 0 0 0   XYZ
    dof rx ry rz
    limits (-20.0 45.0)
           (-30.0 30.0)
           (-30.0 30.0)
  end
  begin
     id 17 
     name lclavicle
     direction 0.971773 0.191119 0.138311  
     length 2.84954  
     axis 0 0 0   XYZ
    dof ry rz
    limits (-20.0 10.0)
           (0.0 20.0)
  end
  begin
     id 18 
     name lhumerus
     direction 1 -4.4897e-011 -2.43761e-027   
     length 4.40919   
     axis 180 -30 -90   XYZ
    dof rx ry rz
    limits (-60.0 90.0)
           (-90.0 90.0)
           (-90.0 90.0)
  end
  begin
     id 19
     name lradius
     direction 1 -4.4896e-011 -9.1621e-027   
     length 3.03857   
     axis 180 -30 -90   XYZ
    dof rx
    limits (-10.0 170.0)
  end
  begin
     id 20
     name lwrist
     direction 1 -4.4896e-011 -1.41363e-026   
     length 1.51928   
     axis 1.07133e-014 90 90   XYZ
    dof ry
    limits (-180.0 0.0)
 end
  begin
     id 21 
     name lhand
     direction 1 -4.48978e-011 -2.82725e-026   
     length 0.523208   
     axis 1.80403e-014 90 90   XYZ
    dof rx rz
    limits (-90.0 90.0)
           (-45.0 45.0)
  end
  begin
     id 22 
     name lfingers
     direction 1 -4.48977e-011 -5.6545e-026   
     length 0.421824   
     axis 3.60806e-014 90 90   XYZ
    dof rx
    limits (0.0 90.0)
  end
  begin
     id 23
     name lthumb
     direction 0.707107 -6.34962e-011 0.707107   
     length 0.605657   
     axis -90 45 2.85299e-015   XYZ
    dof rx rz
    limits (-45.0 45.0)
           (-45.0 45.0)
  end
  begin
     id 24 
     name rclavicle
     direction -0.957247 0.24311 0.156766   
     length 3.12406  
     axis 0 0 0   XYZ 
    dof ry rz
    limits (-10.0 20.0)
           (-20.0 0.0)
  end
  begin
     id 25 
     name rhumerus
     direction -1 -4.48964e-011 -1.70632e-027  
     length 4.61969   
     axis 180 30 90   XYZ
    dof rx ry rz
    limits (-90.0 60.0)
           (-90.0 90.0)
           (-90.0 90.0)
  end
  begin
     id 26 
     name rradius
     direction -1 -4.48966e-011 -6.60395e-027   
     length 3.09382   
     axis 180 30 90   XYZ
    dof rx
    limits (-10.0 170.0)
  end
  begin
     id 27 
     name rwrist
     direction -1 -4.48963e-011 -1.41363e-026   
     length 1.54691   
     axis 1.07133e-014 -90 -90   XYZ
    dof ry
    limits (-180.0 0.0)
  end
  begin
     id 28
     name rhand
     direction -1 -4.49013e-011 -2.82725e-026   
     length 0.500896   
     axis 1.80403e-014 -90 -90   XYZ
    dof rx rz
    limits (-90.0 90.0)
           (-45.0 45.0)
  end
  begin
     id 29
     name rfingers
     direction -1 -4.48902e-011 -5.6545e-026   
     length 0.403835   
     axis 3.60806e-014 -90 -90   XYZ
    dof rx
    limits (0.0 90.0)
  end
  begin
     id 30
     name rthumb
     direction -0.707107 -6.34953e-011 0.707107   
     length 0.579829   
     axis -90 -45 -2.85299e-015   XYZ
    dof rx rz
    limits (-45.0 45.0)
           (-45.0 45.0)
  end
:hierarchy
  begin
    root lhipjoint rhipjoint lowerback
    lhipjoint lfemur
    lfemur ltibia
    ltibia lfoot
    lfoot ltoes
    rhipjoint rfemur
    rfemur rtibia
    rtibia rfoot
    rfoot rtoes
    lowerback upperback
    upperback thorax
    thorax lowerneck lclavicle rclavicle
    lowerneck upperneck
    upperneck head
    lclavicle lhumerus
    lhumerus lradius
    lradius lwrist
    lwrist lhand lthumb
    lhand lfingers
    rclavicle rhumerus
    rhumerus rradius
    rradius rwrist
    rwrist rhand rthumb
    rhand rfingers
  end

#!OML:ASF E:\madness\Project 1\Capture day 1\Session 1\Female1.ASF
:FULLY-SPECIFIED
:DEGREES
30
root 18.6711 16.1075 0.317703 -5.89932 -78.5543 13.559
lowerback -2.35068 -1.67135 -4.47608
upperback -4.20007 -2.25204 1.50403
thorax -2.78696 -1.00061 4.06308
lowerneck 2.75665 -0.955145 -2.4169
upperneck 1.67722 -1.4047 -6.49837
head 0.024479 -0.748423 -1.59082
rclavicle 1.34925e-014 1.74931e-014
rhumerus -47.1095 12.6006 -82.7802
rradius 44.6728
rwrist 5.33381
rhand -9.69791 -48.072
rfingers 7.12502
rthumb 16.2745 -77.409
lclavicle 1.34925e-014 1.74931e-014
lhumerus -54.0388 3.69827 85.155
lradius 54.2322
lwrist -19.521
lhand -28.6703 -17.8774
lfingers 7.12502
lthumb -2.03328 12.0927
rfemur -17.205 12.1637 15.157
rtibia 28.0728
rfoot -19.4697 -22.4542
rtoes 9.65258
lfemur -22.2221 -15.5096 -17.8327
ltibia 35.7667
lfoot -18.7425 0.622604
ltoes 16.9924
31
root 18.7049 16.1064 0.333288 -6.78492 -78.8551 14.2676
lowerback -2.15061 -1.76004 -4.60611
upperback -4.13206 -2.37399 1.5773
thorax -2.80908 -1.05625 4.21701
lowerneck 2.9998 -0.653952 -2.47935
upperneck 1.46849 -1.0263 -6.28403
head -0.06989 -0.547989 -1.51382
rclavicle 7.30534e-015 -5.1684e-015
rhumerus -47.1273 13.1193 -82.5955
rradius 45.6887
rwrist 4.49169
rhand -9.17738 -49.0547
rfingers 7.12502
rthumb 16.7757 -78.35
lclavicle 7.30534e-015 -5.1684e-015
lhumerus -53.8703 3.54045 85.2906
lradius 54.302
lwrist -19.5169
lhand -29.9298 -17.9486
lfingers 7.12502
lthumb -3.24963 12.0064
rfemur -17.3114 12.3041 14.9661
rtibia 28.2249
rfoot -19.0432 -22.3601
rtoes 8.88725
lfemur -22.0948 -15.3935 -17.9856
ltibia 36.4261
lfoot -19.0605 0.16444
ltoes 16.2459
32
root 18.7388 16.1018 0.35201 -7.34218 -79.2817 14.5849
lowerback -2.00123 -1.82957 -4.62887
upperback -3.99017 -2.46548 1.66771
thorax -2.73115 -1.10326 4.32513
lowerneck 3.51934 -0.479141 -1.95722
upperneck 0.858859 -0.839522 -6.74701
head -0.348088 -0.423082 -1.75301
rclavicle 4.77083e-015 1.27222e-014
rhumerus -47.1065 13.7013 -82.5403
rradius 46.5527
rwrist 3.98822
rhand -7.84406 -51.0002
rfingers 7.12502
rthumb 18.0589 -80.1819
lclavicle 4.77083e-015 1.27222e-014
lhumerus -53.6107 3.37357 85.3911
lradius 54.3784
lwrist -19.4611
lhand -30.3892 -17.1369
lfingers 7.12502
lthumb -3.6933 12.8109
rfemur -17.3612 12.4494 14.8976
rtibia 28.3448
rfoot -18.3729 -22.236
rtoes 7.53806
lfemur -21.9618 -15.3678 -17.9903
ltibia 37.1574
lfoot -19.3895 -0.603573
ltoes 16.5574
33
root 18.7727 16.1009 0.376046 -7.70327 -79.7779 14.8274
lowerback -1.9687 -1.87427 -4.52365
upperback -3.88414 -2.52156 1.72991
thorax -2.63409 -1.13723 4.32852
lowerneck 3.32083 -0.262181 -2.23945
upperneck 1.00643 -0.540297 -6.50151
head -0.258169 -0.283846 -1.62924
rclavicle -1.98785e-015 -3.18055e-015
rhumerus -46.9244 14.2163 -82.4781
rradius 46.9938
rwrist 4.07283
rhand -7.41989 -51.732
rfingers 7.12502
rthumb 18.4669 -80.8755
lclavicle -1.98785e-015 -3.18055e-015
lhumerus -53.3991 3.10413 85.4949
lradius 54.4198
lwrist -19.666
lhand -30.223 -16.4146
lfingers 7.12502
lthumb -3.53283 13.5359
rfemur -17.5768 12.5027 14.8082
rtibia 28.5169
rfoot -17.7544 -21.9121
rtoes 6.26008
lfemur -21.9249 -15.3876 -17.9469
ltibia 37.8532
lfoot -19.5741 -1.57306
ltoes 17.4808
34
root 18.8076 16.104 0.400962 -8.57963 -80.2616 15.6354
lowerback -1.89998 -1.8666 -4.49592
upperback -3.87915 -2.51435 1.72057
thorax -2.66968 -1.13354 4.30575
lowerneck 3.41959 -0.0915631 -1.9639
upperneck 1.06939 -0.302008 -6.55397
head -0.250879 -0.163534 -1.69667
rclavicle 1.35049e-014 3.97569e-015
rhumerus -46.9202 14.3083 -82.2572
rradius 47.5502
rwrist 4.57507
rhand -7.41529 -51.5255
rfingers 7.12502
rthumb 18.4714 -80.6685
lclavicle 1.35049e-014 3.97569e-015
lhumerus -53.3807 2.55713 85.6878
lradius 54.4766
lwrist -20.0629
lhand -29.9732 -17.0778
lfingers 7.12502
lthumb -3.2916 12.8766
rfemur -17.8518 12.588 14.597
rtibia 28.7169
rfoot -17.2931 -21.5344
rtoes 5.68911
lfemur -21.8863 -15.3997 -18.0007
ltibia 38.5319
lfoot -19.9063 -2.42351
ltoes 17.3053
35
root 18.8431 16.1025 0.427934 -9.51482 -80.8135 16.4492
lowerback -1.84093 -1.88065 -4.48738
upperback -3.90413 -2.53644 1.74405
thorax -2.72586 -1.14279 4.32822
lowerneck 3.7907 0.125589 -1.59067
upperneck 0.967315 -0.0184401 -6.65492
head -0.339089 -0.0101197 -1.79904
rclavicle -5.39203e-015 1.43125e-014
rhumerus -47.1222 14.3537 -82.0287
rradius 48.215
rwrist 5.23175
rhand -7.55315 -50.6357
rfingers 7.12502
rthumb 18.3388 -79.7912
lclavicle -5.39203e-015 1.43125e-014
lhumerus -53.4823 2.12074 85.8242
lradius 54.6131
lwrist -20.2564
lhand -29.9442 -17.7632
lfingers 7.12502
lthumb -3.26359 12.1916
rfemur -18.0941 12.5997 14.4431
rtibia 28.9372
rfoot -16.8837 -21.0707
rtoes 4.97605
lfemur -21.7378 -15.3689 -18.0348
ltibia 39.2013
lfoot -20.297 -3.10611
ltoes 15.524
36
root 18.883 16.0915 0.457046 -10.2047 -81.4537 17.0752
lowerback -1.80446 -1.94687 -4.40527
upperback -3.90162 -2.62547 1.81486
thorax -2.73418 -1.18871 4.35655
lowerneck 3.83774 0.43215 -1.34995
upperneck 1.06295 0.404411 -6.73755
head -0.305698 0.199992 -1.8737
rclavicle 2.60905e-014 -3.18055e-015
rhumerus -47.1578 14.5762 -81.8439
rradius 48.8581
rwrist 5.60991
rhand -8.80492 -48.2002
rfingers 7.12502
rthumb 17.1342 -77.4647
lclavicle 2.60905e-014 -3.18055e-015
lhumerus -53.5216 1.86267 85.8527
lradius 54.86
lwrist -20.3446
lhand -30.0961 -17.7714
lfingers 7.12502
lthumb -3.41027 12.1811
rfemur -18.4806 12.5547 14.3318
rtibia 29.1859
rfoot -16.3614 -20.5184
rtoes 4.04016
lfemur -21.6808 -15.3491 -17.9758
ltibia 39.8213
lfoot -19.9813 -4.16029
ltoes 15.9731
